<svg width="104" height="48" viewBox="0 0 104 48" fill="none" xmlns="http://www.w3.org/2000/svg">
<rect x="0.5" y="0.5" width="103" height="47" rx="4.5" fill="#FBFCFE"/>
<path d="M27.6214 27.9322V22.0078M25.3203 25.6215L27.6202 27.9311L29.9201 25.6215" stroke="#5071A4" stroke-width="1.4" stroke-linecap="round" stroke-linejoin="round"/>
<path d="M29.7857 15C30.3434 15 30.8777 15.2268 31.2641 15.6298L35.055 19.5794C35.422 19.9609 35.6264 20.4699 35.6264 20.9994V29.1633C35.641 31.2199 34.0234 32.9163 31.9697 33L24.0442 32.999C21.9711 32.9533 20.3282 31.2364 20.374 29.1633V18.6567C20.4226 16.6176 22.0938 14.9913 24.1338 15H29.7857Z" stroke="#5071A4" stroke-width="1.4" stroke-linecap="round" stroke-linejoin="round"/>
<path d="M30.2695 15.0625V17.9551C30.2686 19.3664 31.4112 20.5129 32.8234 20.5158H35.5623" stroke="#5071A4" stroke-width="1.4" stroke-linecap="round" stroke-linejoin="round"/>
<path d="M50.6313 20.764V23.212H53.5113V24.328H50.6313V26.884H53.8713V28H49.2633V19.648L53.8713 19.648V20.764L50.6313 20.764ZM58.8883 24.652L61.0243 28H59.4763L58.0483 25.756L56.7043 28H55.2763L57.4123 24.748L55.2763 21.388H56.8243L58.2523 23.632L59.5963 21.388H61.0243L58.8883 24.652ZM63.9125 22.36C64.1445 22.056 64.4605 21.8 64.8605 21.592C65.2605 21.384 65.7125 21.28 66.2165 21.28C66.7925 21.28 67.3165 21.424 67.7885 21.712C68.2685 21.992 68.6445 22.388 68.9165 22.9C69.1885 23.412 69.3245 24 69.3245 24.664C69.3245 25.328 69.1885 25.924 68.9165 26.452C68.6445 26.972 68.2685 27.38 67.7885 27.676C67.3165 27.964 66.7925 28.108 66.2165 28.108C65.7125 28.108 65.2645 28.008 64.8725 27.808C64.4805 27.6 64.1605 27.344 63.9125 27.04V31.144H62.5445V21.388H63.9125V22.36ZM67.9325 24.664C67.9325 24.208 67.8365 23.816 67.6445 23.488C67.4605 23.152 67.2125 22.9 66.9005 22.732C66.5965 22.556 66.2685 22.468 65.9165 22.468C65.5725 22.468 65.2445 22.556 64.9325 22.732C64.6285 22.908 64.3805 23.164 64.1885 23.5C64.0045 23.836 63.9125 24.232 63.9125 24.688C63.9125 25.144 64.0045 25.544 64.1885 25.888C64.3805 26.224 64.6285 26.48 64.9325 26.656C65.2445 26.832 65.5725 26.92 65.9165 26.92C66.2685 26.92 66.5965 26.832 66.9005 26.656C67.2125 26.472 67.4605 26.208 67.6445 25.864C67.8365 25.52 67.9325 25.12 67.9325 24.664ZM74.0453 28.108C73.4213 28.108 72.8573 27.968 72.3533 27.688C71.8493 27.4 71.4533 27 71.1653 26.488C70.8773 25.968 70.7333 25.368 70.7333 24.688C70.7333 24.016 70.8813 23.42 71.1773 22.9C71.4733 22.38 71.8773 21.98 72.3893 21.7C72.9013 21.42 73.4733 21.28 74.1053 21.28C74.7373 21.28 75.3093 21.42 75.8213 21.7C76.3333 21.98 76.7373 22.38 77.0333 22.9C77.3293 23.42 77.4773 24.016 77.4773 24.688C77.4773 25.36 77.3253 25.956 77.0213 26.476C76.7173 26.996 76.3013 27.4 75.7733 27.688C75.2533 27.968 74.6773 28.108 74.0453 28.108ZM74.0453 26.92C74.3973 26.92 74.7253 26.836 75.0293 26.668C75.3413 26.5 75.5933 26.248 75.7853 25.912C75.9773 25.576 76.0733 25.168 76.0733 24.688C76.0733 24.208 75.9813 23.804 75.7973 23.476C75.6133 23.14 75.3693 22.888 75.0653 22.72C74.7613 22.552 74.4333 22.468 74.0813 22.468C73.7293 22.468 73.4013 22.552 73.0973 22.72C72.8013 22.888 72.5653 23.14 72.3893 23.476C72.2133 23.804 72.1253 24.208 72.1253 24.688C72.1253 25.4 72.3053 25.952 72.6653 26.344C73.0333 26.728 73.4933 26.92 74.0453 26.92ZM80.6977 22.348C80.8977 22.012 81.1617 21.752 81.4897 21.568C81.8257 21.376 82.2217 21.28 82.6777 21.28V22.696H82.3297C81.7937 22.696 81.3857 22.832 81.1057 23.104C80.8337 23.376 80.6977 23.848 80.6977 24.52V28H79.3297V21.388H80.6977V22.348ZM86.0312 22.504V26.164C86.0312 26.412 86.0872 26.592 86.1992 26.704C86.3192 26.808 86.5192 26.86 86.7992 26.86H87.6392V28H86.5592C85.9432 28 85.4712 27.856 85.1432 27.568C84.8152 27.28 84.6512 26.812 84.6512 26.164V22.504H83.8712V21.388H84.6512V19.744L86.0312 19.744V21.388H87.6392V22.504L86.0312 22.504Z" fill="#5071A4"/>
<rect x="0.5" y="0.5" width="103" height="47" rx="4.5" stroke="#DDE4F0"/>
</svg>
