<svg xmlns="http://www.w3.org/2000/svg" width="24" height="24" viewBox="0 0 24 24" fill="none">
<path d="M6.68262 6.93472C6.68262 5.38808 7.93642 4.13428 9.48306 4.13428H12.2239C13.7705 4.13428 15.0244 5.38808 15.0244 6.93472C15.0244 8.48137 13.7705 9.73517 12.2239 9.73517H9.48306C7.93642 9.73517 6.68262 8.48137 6.68262 6.93472Z" stroke="#282B2E" stroke-width="1.44" stroke-linecap="round" stroke-linejoin="round"/>
<path d="M18.2419 17.0637C18.2419 18.6103 16.988 19.8641 15.4415 19.8641H14.0114C12.4648 19.8641 11.2109 18.6103 11.2109 17.0637C11.2109 15.517 12.4648 14.2632 14.0114 14.2632H15.4415C16.988 14.2632 18.2419 15.517 18.2419 17.0637Z" stroke="#282B2E" stroke-width="1.44" stroke-linecap="round" stroke-linejoin="round"/>
<path d="M21.1007 17.0552H18.3219M11.1501 17.0553H3.82129" stroke="#282B2E" stroke-width="1.44" stroke-linecap="round" stroke-linejoin="round"/>
<path d="M3.82129 6.94339H6.60013M15.1424 6.94336H21.1006" stroke="#282B2E" stroke-width="1.44" stroke-linecap="round" stroke-linejoin="round"/>
</svg>