<svg width="48" height="48" viewBox="0 0 48 48" fill="none" xmlns="http://www.w3.org/2000/svg">
<path d="M18.6826 18.9348C18.6826 17.3882 19.9364 16.1344 21.4831 16.1344H24.2239C25.7705 16.1344 27.0244 17.3882 27.0244 18.9348C27.0244 20.4815 25.7705 21.7353 24.2239 21.7353H21.4831C19.9364 21.7353 18.6826 20.4815 18.6826 18.9348Z" stroke="#5071A4" stroke-width="1.44" stroke-linecap="round" stroke-linejoin="round"/>
<path d="M30.2419 29.0636C30.2419 30.6102 28.988 31.864 27.4415 31.864H26.0114C24.4648 31.864 23.2109 30.6102 23.2109 29.0636C23.2109 27.517 24.4648 26.2631 26.0114 26.2631H27.4415C28.988 26.2631 30.2419 27.517 30.2419 29.0636Z" stroke="#5071A4" stroke-width="1.44" stroke-linecap="round" stroke-linejoin="round"/>
<path d="M33.1007 29.055H30.3219M23.1501 29.0551H15.8213" stroke="#5071A4" stroke-width="1.44" stroke-linecap="round" stroke-linejoin="round"/>
<path d="M15.8213 18.9432H18.6001M27.1424 18.9431H33.1006" stroke="#5071A4" stroke-width="1.44" stroke-linecap="round" stroke-linejoin="round"/>
<rect x="0.7" y="0.7" width="46.6" height="46.6" rx="4.3" stroke="#5071A4" stroke-width="1.4"/>
</svg>
