<svg width="145" height="20" viewBox="0 0 145 20" fill="none" xmlns="http://www.w3.org/2000/svg">
<path d="M6.44 19.668C5.272 19.668 4.216 19.468 3.272 19.068C2.344 18.668 1.608 18.092 1.064 17.34C0.52 16.588 0.24 15.7 0.224 14.676H3.824C3.872 15.364 4.112 15.908 4.544 16.308C4.992 16.708 5.6 16.908 6.368 16.908C7.152 16.908 7.768 16.724 8.216 16.356C8.664 15.972 8.888 15.476 8.888 14.868C8.888 14.372 8.736 13.964 8.432 13.644C8.128 13.324 7.744 13.076 7.28 12.9C6.832 12.708 6.208 12.5 5.408 12.276C4.32 11.956 3.432 11.644 2.744 11.34C2.072 11.02 1.488 10.548 0.992 9.924C0.512 9.284 0.272 8.436 0.272 7.38C0.272 6.388 0.52 5.524 1.016 4.788C1.512 4.052 2.208 3.492 3.104 3.108C4 2.708 5.024 2.508 6.176 2.508C7.904 2.508 9.304 2.932 10.376 3.78C11.464 4.612 12.064 5.78 12.176 7.284H8.48C8.448 6.708 8.2 6.236 7.736 5.868C7.288 5.484 6.688 5.292 5.936 5.292C5.28 5.292 4.752 5.46 4.352 5.796C3.968 6.132 3.776 6.62 3.776 7.26C3.776 7.708 3.92 8.084 4.208 8.388C4.512 8.676 4.88 8.916 5.312 9.108C5.76 9.284 6.384 9.492 7.184 9.732C8.272 10.052 9.16 10.372 9.848 10.692C10.536 11.012 11.128 11.492 11.624 12.132C12.12 12.772 12.368 13.612 12.368 14.652C12.368 15.548 12.136 16.38 11.672 17.148C11.208 17.916 10.528 18.532 9.632 18.996C8.736 19.444 7.672 19.668 6.44 19.668ZM32.293 6.012C33.925 6.012 35.237 6.516 36.229 7.524C37.237 8.516 37.741 9.908 37.741 11.7V19.5H34.381V12.156C34.381 11.116 34.117 10.324 33.589 9.78C33.061 9.22 32.341 8.94 31.429 8.94C30.517 8.94 29.789 9.22 29.245 9.78C28.717 10.324 28.453 11.116 28.453 12.156V19.5H25.093V12.156C25.093 11.116 24.829 10.324 24.301 9.78C23.773 9.22 23.053 8.94 22.141 8.94C21.213 8.94 20.477 9.22 19.933 9.78C19.405 10.324 19.141 11.116 19.141 12.156V19.5H15.781V6.204H19.141V7.812C19.573 7.252 20.125 6.812 20.797 6.492C21.485 6.172 22.237 6.012 23.053 6.012C24.093 6.012 25.021 6.236 25.837 6.684C26.653 7.116 27.285 7.74 27.733 8.556C28.165 7.788 28.789 7.172 29.605 6.708C30.437 6.244 31.333 6.012 32.293 6.012ZM40.5654 12.804C40.5654 11.46 40.8294 10.268 41.3574 9.228C41.9014 8.188 42.6294 7.388 43.5414 6.828C44.4694 6.268 45.5014 5.988 46.6374 5.988C47.6294 5.988 48.4934 6.188 49.2294 6.588C49.9814 6.988 50.5814 7.492 51.0294 8.1V6.204H54.4134V19.5H51.0294V17.556C50.5974 18.18 49.9974 18.7 49.2294 19.116C48.4774 19.516 47.6054 19.716 46.6134 19.716C45.4934 19.716 44.4694 19.428 43.5414 18.852C42.6294 18.276 41.9014 17.468 41.3574 16.428C40.8294 15.372 40.5654 14.164 40.5654 12.804ZM51.0294 12.852C51.0294 12.036 50.8694 11.34 50.5494 10.764C50.2294 10.172 49.7974 9.724 49.2534 9.42C48.7094 9.1 48.1254 8.94 47.5014 8.94C46.8774 8.94 46.3014 9.092 45.7734 9.396C45.2454 9.7 44.8134 10.148 44.4774 10.74C44.1574 11.316 43.9974 12.004 43.9974 12.804C43.9974 13.604 44.1574 14.308 44.4774 14.916C44.8134 15.508 45.2454 15.964 45.7734 16.284C46.3174 16.604 46.8934 16.764 47.5014 16.764C48.1254 16.764 48.7094 16.612 49.2534 16.308C49.7974 15.988 50.2294 15.54 50.5494 14.964C50.8694 14.372 51.0294 13.668 51.0294 12.852ZM61.5551 8.268C61.9871 7.564 62.5471 7.012 63.2351 6.612C63.9391 6.212 64.7391 6.012 65.6351 6.012V9.54H64.7471C63.6911 9.54 62.8911 9.788 62.3471 10.284C61.8191 10.78 61.5551 11.644 61.5551 12.876V19.5H58.1951V6.204H61.5551V8.268ZM72.3102 8.964V15.396C72.3102 15.844 72.4142 16.172 72.6222 16.38C72.8462 16.572 73.2142 16.668 73.7262 16.668H75.2862V19.5H73.1742C70.3422 19.5 68.9262 18.124 68.9262 15.372V8.964H67.3422V6.204H68.9262V2.916H72.3102V6.204H75.2862V8.964H72.3102Z" fill="#282B2E"/>
<path d="M90.4189 7.932C90.4189 8.828 90.2029 9.668 89.7709 10.452C89.3549 11.236 88.6909 11.868 87.7789 12.348C86.8829 12.828 85.7469 13.068 84.3709 13.068H81.5629V19.5H78.2029V2.748H84.3709C85.6669 2.748 86.7709 2.972 87.6829 3.42C88.5949 3.868 89.2749 4.484 89.7229 5.268C90.1869 6.052 90.4189 6.94 90.4189 7.932ZM84.2269 10.356C85.1549 10.356 85.8429 10.148 86.2909 9.732C86.7389 9.3 86.9629 8.7 86.9629 7.932C86.9629 6.3 86.0509 5.484 84.2269 5.484H81.5629V10.356H84.2269ZM96.6644 1.74V19.5H93.3044V1.74H96.6644ZM99.6201 12.804C99.6201 11.46 99.8841 10.268 100.412 9.228C100.956 8.188 101.684 7.388 102.596 6.828C103.524 6.268 104.556 5.988 105.692 5.988C106.684 5.988 107.548 6.188 108.284 6.588C109.036 6.988 109.636 7.492 110.084 8.1V6.204H113.468V19.5H110.084V17.556C109.652 18.18 109.052 18.7 108.284 19.116C107.532 19.516 106.66 19.716 105.668 19.716C104.548 19.716 103.524 19.428 102.596 18.852C101.684 18.276 100.956 17.468 100.412 16.428C99.8841 15.372 99.6201 14.164 99.6201 12.804ZM110.084 12.852C110.084 12.036 109.924 11.34 109.604 10.764C109.284 10.172 108.852 9.724 108.308 9.42C107.764 9.1 107.18 8.94 106.556 8.94C105.932 8.94 105.356 9.092 104.828 9.396C104.3 9.7 103.868 10.148 103.532 10.74C103.212 11.316 103.052 12.004 103.052 12.804C103.052 13.604 103.212 14.308 103.532 14.916C103.868 15.508 104.3 15.964 104.828 16.284C105.372 16.604 105.948 16.764 106.556 16.764C107.18 16.764 107.764 16.612 108.308 16.308C108.852 15.988 109.284 15.54 109.604 14.964C109.924 14.372 110.084 13.668 110.084 12.852ZM118.954 4.62C118.362 4.62 117.866 4.436 117.466 4.068C117.082 3.684 116.89 3.212 116.89 2.652C116.89 2.092 117.082 1.628 117.466 1.26C117.866 0.875999 118.362 0.683999 118.954 0.683999C119.546 0.683999 120.034 0.875999 120.418 1.26C120.818 1.628 121.018 2.092 121.018 2.652C121.018 3.212 120.818 3.684 120.418 4.068C120.034 4.436 119.546 4.62 118.954 4.62ZM120.61 6.204V19.5H117.25V6.204H120.61ZM131.797 6.012C133.381 6.012 134.661 6.516 135.637 7.524C136.613 8.516 137.101 9.908 137.101 11.7V19.5H133.741V12.156C133.741 11.1 133.477 10.292 132.949 9.732C132.421 9.156 131.701 8.868 130.789 8.868C129.861 8.868 129.125 9.156 128.581 9.732C128.053 10.292 127.789 11.1 127.789 12.156V19.5H124.429V6.204H127.789V7.86C128.237 7.284 128.805 6.836 129.493 6.516C130.197 6.18 130.965 6.012 131.797 6.012ZM142.285 19.668C141.677 19.668 141.173 19.484 140.773 19.116C140.389 18.732 140.197 18.26 140.197 17.7C140.197 17.14 140.389 16.676 140.773 16.308C141.173 15.924 141.677 15.732 142.285 15.732C142.877 15.732 143.365 15.924 143.749 16.308C144.133 16.676 144.325 17.14 144.325 17.7C144.325 18.26 144.133 18.732 143.749 19.116C143.365 19.484 142.877 19.668 142.285 19.668Z" fill="#11A6E6"/>
</svg>
