<svg xmlns="http://www.w3.org/2000/svg" width="25" height="25" viewBox="0 0 25 25" fill="none">
<path d="M17.2863 11.8326C19.281 11.8326 20.8983 13.4497 20.8983 15.4446C20.8983 17.4395 19.281 19.0566 17.2863 19.0566H7.37091C6.22043 19.0566 5.28785 19.9894 5.28809 21.1399" stroke="#202328" stroke-width="1.4" stroke-linecap="round" stroke-linejoin="round"/>
<path d="M7.90301 11.0825C5.90815 11.0825 4.29102 9.46536 4.29102 7.47051C4.29102 5.47566 5.90815 3.85852 7.90301 3.85852H18.9789" stroke="#202328" stroke-width="1.4" stroke-linecap="round" stroke-linejoin="round"/>
<path d="M15.8903 8.07115C17.7051 9.88599 17.7051 12.8284 15.8903 14.6433C14.0754 16.4581 11.133 16.4581 9.31816 14.6433C7.50332 12.8284 7.50332 9.88599 9.31816 8.07115C11.133 6.25631 14.0754 6.25631 15.8903 8.07115Z" stroke="#202328" stroke-width="1.4" stroke-linecap="round" stroke-linejoin="round"/>
<path d="M12.5979 13.2351L13.813 11.3568H11.3975L12.6113 9.47748" stroke="#202328" stroke-width="1.4" stroke-linecap="round" stroke-linejoin="round"/>
<path d="M12.5979 13.2351L13.813 11.3569H11.3975L12.6113 9.47754" stroke="#202328" stroke-width="1.4" stroke-linecap="round" stroke-linejoin="round"/>
</svg>