<svg xmlns="http://www.w3.org/2000/svg" width="25" height="25" viewBox="0 0 25 25" fill="none">
  <mask id="path-1-inside-1_288_331" fill="white">
    <rect x="3.96387" y="9.5" width="6" height="4" rx="1" transform="rotate(-30 3.96387 9.5)"/>
  </mask>
  <rect x="3.96387" y="9.5" width="6" height="4" rx="1" transform="rotate(-30 3.96387 9.5)" stroke="#4FAFF5" stroke-width="2.8" stroke-linecap="round" stroke-linejoin="round" mask="url(#path-1-inside-1_288_331)"/>
  <mask id="path-2-inside-2_288_331" fill="white">
    <rect x="3" y="15.8301" width="6" height="4" rx="1" transform="rotate(-30 3 15.8301)"/>
  </mask>
  <rect x="3" y="15.8301" width="6" height="4" rx="1" transform="rotate(-30 3 15.8301)" stroke="#4FAFF5" stroke-width="2.8" stroke-linecap="round" stroke-linejoin="round" mask="url(#path-2-inside-2_288_331)"/>
  <mask id="path-3-inside-3_288_331" fill="white">
    <rect x="8.96387" y="18.1602" width="6" height="4" rx="1" transform="rotate(-30 8.96387 18.1602)"/>
  </mask>
  <rect x="8.96387" y="18.1602" width="6" height="4" rx="1" transform="rotate(-30 8.96387 18.1602)" stroke="#4FAFF5" stroke-width="2.8" stroke-linecap="round" stroke-linejoin="round" mask="url(#path-3-inside-3_288_331)"/>
  <mask id="path-4-inside-4_288_331" fill="white">
    <rect x="10.0264" y="6" width="6" height="4" rx="1" transform="rotate(-30 10.0264 6)"/>
  </mask>
  <rect x="10.0264" y="6" width="6" height="4" rx="1" transform="rotate(-30 10.0264 6)" stroke="#4FAFF5" stroke-width="2.8" stroke-linecap="round" stroke-linejoin="round" mask="url(#path-4-inside-4_288_331)"/>
  <mask id="path-5-inside-5_288_331" fill="white">
    <rect x="9.0625" y="12.3301" width="6" height="4" rx="1" transform="rotate(-30 9.0625 12.3301)"/>
  </mask>
  <rect x="9.0625" y="12.3301" width="6" height="4" rx="1" transform="rotate(-30 9.0625 12.3301)" stroke="#4FAFF5" stroke-width="2.8" stroke-linecap="round" stroke-linejoin="round" mask="url(#path-5-inside-5_288_331)"/>
  <mask id="path-6-inside-6_288_331" fill="white">
    <rect x="15.124" y="8.83014" width="6" height="4" rx="1" transform="rotate(-30 15.124 8.83014)"/>
  </mask>
  <rect x="15.124" y="8.83014" width="6" height="4" rx="1" transform="rotate(-30 15.124 8.83014)" stroke="#4FAFF5" stroke-width="2.8" stroke-linecap="round" stroke-linejoin="round" mask="url(#path-6-inside-6_288_331)"/>
  <mask id="path-7-inside-7_288_331" fill="white">
    <rect x="15.0264" y="14.6602" width="6" height="4" rx="1" transform="rotate(-30 15.0264 14.6602)"/>
  </mask>
  <rect x="15.0264" y="14.6602" width="6" height="4" rx="1" transform="rotate(-30 15.0264 14.6602)" stroke="#4FAFF5" stroke-width="2.8" stroke-linecap="round" stroke-linejoin="round" mask="url(#path-7-inside-7_288_331)"/>
</svg>