<svg xmlns="http://www.w3.org/2000/svg" width="16" height="16" viewBox="0 0 16 16" fill="none">
<path d="M8 16C12.4183 16 16 12.4183 16 8C16 3.58172 12.4183 0 8 0C3.58172 0 0 3.58172 0 8C0 12.4183 3.58172 16 8 16Z" fill="#F2BB30"/>
<path d="M8.00195 8.52108L8.00195 10.7428" stroke="white" stroke-width="2" stroke-linecap="round" stroke-linejoin="round"/>
<path d="M7.99692 5.88549L7.99692 5.84566M8.1582 5.87682C8.1582 5.78718 8.0859 5.71433 7.99626 5.71433C7.90663 5.71433 7.83378 5.78718 7.83378 5.87682C7.83378 5.96646 7.90663 6.03931 7.99626 6.03931C8.0859 6.03931 8.1582 5.96646 8.1582 5.87682Z" stroke="white" stroke-width="2" stroke-linecap="round" stroke-linejoin="round"/>
</svg>