<svg xmlns="http://www.w3.org/2000/svg" width="16" height="16" viewBox="0 0 16 16" fill="none">
<path d="M8 16C12.4183 16 16 12.4183 16 8C16 3.58172 12.4183 0 8 0C3.58172 0 0 3.58172 0 8C0 12.4183 3.58172 16 8 16Z" fill="#4FAFF5"/>
<path d="M7.99219 7.93607V5.71436" stroke="white" stroke-width="2" stroke-linecap="round" stroke-linejoin="round"/>
<path d="M7.99526 10.5715V10.6114M7.83398 10.5802C7.83398 10.6698 7.90629 10.7427 7.99592 10.7427C8.08556 10.7427 8.15841 10.6698 8.15841 10.5802C8.15841 10.4906 8.08556 10.4177 7.99592 10.4177C7.90629 10.4177 7.83398 10.4906 7.83398 10.5802Z" stroke="white" stroke-width="2" stroke-linecap="round" stroke-linejoin="round"/>
</svg>