<svg xmlns="http://www.w3.org/2000/svg" width="30" height="30" viewBox="0 0 30 30" fill="none">
<path d="M19.0193 19.3113V13.0012M12.0002 19.3113V15.0969M4.98096 19.3113V10.9055" stroke="#A6ABC8" stroke-width="1.4" stroke-linecap="round" stroke-linejoin="round"/>
<path d="M13.5601 10.2118L17.5035 8.68408" stroke="#A6ABC8" stroke-width="1.4" stroke-linecap="round" stroke-linejoin="round"/>
<path d="M10.6348 9.81113L6.323 6.50684" stroke="#A6ABC8" stroke-width="1.4" stroke-linecap="round" stroke-linejoin="round"/>
<path d="M13.1458 11.8071C13.7787 11.1742 13.7787 10.1479 13.1458 9.51499C12.5129 8.88205 11.4867 8.88205 10.8537 9.51499C10.2208 10.1479 10.2208 11.1742 10.8537 11.8071C11.4867 12.44 12.5129 12.44 13.1458 11.8071Z" stroke="#A6ABC8" stroke-width="1.4" stroke-linecap="round" stroke-linejoin="round"/>
<path d="M6.12679 6.72261C6.75973 6.08967 6.75973 5.06346 6.12679 4.43051C5.49384 3.79758 4.46763 3.79758 3.8347 4.43051C3.20175 5.06346 3.20175 6.08967 3.8347 6.72261C4.46763 7.35556 5.49384 7.35556 6.12679 6.72261Z" stroke="#A6ABC8" stroke-width="1.4" stroke-linecap="round" stroke-linejoin="round"/>
<path d="M20.1654 9.2795C20.7983 8.64655 20.7983 7.62034 20.1654 6.98741C19.5324 6.35446 18.5062 6.35446 17.8733 6.98741C17.2403 7.62034 17.2403 8.64655 17.8733 9.2795C18.5062 9.91246 19.5324 9.91246 20.1654 9.2795Z" stroke="#A6ABC8" stroke-width="1.4" stroke-linecap="round" stroke-linejoin="round"/>
</svg>