<svg xmlns="http://www.w3.org/2000/svg" width="30" height="30" viewBox="0 0 30 30" fill="none">
<path d="M3 20.9102H21" stroke="#A6ABC8" stroke-width="1.4" stroke-linecap="round" stroke-linejoin="round"/>
<path d="M17.3405 20.9118V5.12433C17.3405 4.00055 16.4298 3.08984 15.307 3.08984H8.69464C7.57086 3.08984 6.66016 4.00055 6.66016 5.12433V20.9118" stroke="#A6ABC8" stroke-width="1.4" stroke-linecap="round" stroke-linejoin="round"/>
<path d="M13.6736 13.7773L13.6755 13.7873M10.3252 13.7773L10.3271 13.7873" stroke="#A6ABC8" stroke-width="1.4" stroke-linecap="round" stroke-linejoin="round"/>
<path d="M13.6736 10.4844L13.6755 10.4944M10.3252 10.4844L10.3271 10.4944" stroke="#A6ABC8" stroke-width="1.4" stroke-linecap="round" stroke-linejoin="round"/>
<path d="M13.6736 7.11719L13.6755 7.12719M10.3252 7.11719L10.3271 7.12719" stroke="#A6ABC8" stroke-width="1.4" stroke-linecap="round" stroke-linejoin="round"/>
<path d="M9.98047 20.9123V18.3048C9.98047 17.8825 10.3278 17.5352 10.7501 17.5352H13.2545C13.6758 17.5352 14.0232 17.8825 14.0232 18.3048V20.9123" stroke="#A6ABC8" stroke-width="1.4" stroke-linecap="round" stroke-linejoin="round"/>
<path d="M17.3398 9.00781H18.5969C19.385 9.00781 20.0321 9.64608 20.0321 10.4429V20.9112" stroke="#A6ABC8" stroke-width="1.4" stroke-linecap="round" stroke-linejoin="round"/>
<path d="M4.08496 20.9112V10.4429C4.08496 9.64608 4.73199 9.00781 5.5201 9.00781H6.65458" stroke="#A6ABC8" stroke-width="1.4" stroke-linecap="round" stroke-linejoin="round"/>
</svg>