<svg xmlns="http://www.w3.org/2000/svg" width="30" height="30" viewBox="0 0 30 30" fill="none">
<path d="M8.01078 4.7251H15.3263C17.8716 4.7251 19.4483 6.13925 19.4408 8.73686V16.6212C19.4408 19.2198 17.8641 20.6414 15.3189 20.6414H8.01078C5.47296 20.6414 3.88879 19.1945 3.88879 16.5559V8.73686C3.88879 6.13925 5.47296 4.7251 8.01078 4.7251Z" stroke="#A6ABC8" stroke-width="1.4" stroke-linecap="round" stroke-linejoin="round"/>
<path d="M8.45251 17.0735C8.45251 16.0246 9.28008 14.7188 11.6638 14.7188C14.0485 14.7188 14.876 16.0152 14.876 17.0642" stroke="#A6ABC8" stroke-width="1.4" stroke-linecap="round" stroke-linejoin="round"/>
<path fill-rule="evenodd" clip-rule="evenodd" d="M13.7145 10.5151C13.7145 11.6481 12.7964 12.5662 11.6633 12.5662C10.5303 12.5662 9.61121 11.6481 9.61121 10.5151C9.61121 9.38204 10.5303 8.46387 11.6633 8.46387C12.7964 8.46387 13.7145 9.38204 13.7145 10.5151Z" stroke="#A6ABC8" stroke-width="1.4" stroke-linecap="round" stroke-linejoin="round"/>
<path d="M15.1576 3.36011V6.20338M8.17688 3.36011V6.20338" stroke="#A6ABC8" stroke-width="1.4" stroke-linecap="round" stroke-linejoin="round"/>
</svg>