<svg xmlns="http://www.w3.org/2000/svg" width="30" height="30" viewBox="0 0 30 30" fill="none">
<path d="M5.2917 6.75528C6.35026 6.75528 7.2084 5.89714 7.2084 4.83858C7.2084 3.78001 6.35026 2.92188 5.2917 2.92188C4.23314 2.92188 3.375 3.78001 3.375 4.83858C3.375 5.89714 4.23314 6.75528 5.2917 6.75528Z" stroke="#A6ABC8" stroke-width="1.4" stroke-linecap="round" stroke-linejoin="round"/>
<path d="M10.0837 11.5463C11.1423 11.5463 12.0004 10.6882 12.0004 9.62959C12.0004 8.57103 11.1423 7.71289 10.0837 7.71289C9.02513 7.71289 8.16699 8.57103 8.16699 9.62959C8.16699 10.6882 9.02513 11.5463 10.0837 11.5463Z" stroke="#A6ABC8" stroke-width="1.4" stroke-linecap="round" stroke-linejoin="round"/>
<path d="M6.67871 6.16797L8.7386 8.22786" stroke="#A6ABC8" stroke-width="1.4" stroke-linecap="round" stroke-linejoin="round"/>
<path d="M15.1472 19.3145C14.1562 19.8355 13.8496 21.5009 13.8496 21.5009" stroke="#A6ABC8" stroke-width="1.4" stroke-linecap="round"/>
<path d="M11.4707 2.50345C13.3472 2.46169 15.1285 2.78923 16.5952 4.02633C18.4783 5.61445 19.5797 7.55752 19.0094 10.1413C18.7054 11.5186 19.711 13.083 20.4235 14.0401C20.7372 14.4615 20.5791 15.026 20.0889 15.215L19.1614 15.5727C18.8938 15.6759 18.6983 15.9098 18.6443 16.1914L18.334 18.8346C18.2311 19.5205 17.648 19.8464 16.9964 19.7092L14.2119 19.0814C13.3014 18.8807 13.3413 18.0571 13.1034 17.1952" stroke="#A6ABC8" stroke-width="1.4" stroke-linecap="round"/>
<path d="M4.26855 12.8633C5.72377 15.468 6.39593 18.4308 5.15331 21.2646" stroke="#A6ABC8" stroke-width="1.4" stroke-linecap="round"/>
</svg>