<svg xmlns="http://www.w3.org/2000/svg" width="30" height="30" viewBox="0 0 30 30" fill="none">
<path d="M5.52002 2.9939V4.9139" stroke="#A6ABC8" stroke-width="1.4" stroke-linecap="round" stroke-linejoin="round"/>
<path fill-rule="evenodd" clip-rule="evenodd" d="M6.25458 4.91382H4.78439C3.99793 4.91382 3.35999 5.54935 3.35999 6.33374V9.25482C3.35999 10.0392 3.99793 10.6739 4.78439 10.6739H6.25458C7.04198 10.6739 7.67993 10.0392 7.67993 9.25482V6.33374C7.67993 5.54935 7.04198 4.91382 6.25458 4.91382Z" stroke="#A6ABC8" stroke-width="1.4" stroke-linecap="round" stroke-linejoin="round"/>
<path d="M5.52002 10.6741V12.5941" stroke="#A6ABC8" stroke-width="1.4" stroke-linecap="round" stroke-linejoin="round"/>
<path d="M12 5.87402V8.27402" stroke="#A6ABC8" stroke-width="1.4" stroke-linecap="round" stroke-linejoin="round"/>
<path fill-rule="evenodd" clip-rule="evenodd" d="M12.7346 8.27393H11.2644C10.4779 8.27393 9.83997 8.90946 9.83997 9.69381V16.4549C9.83997 17.2393 10.4779 17.874 11.2644 17.874H12.7346C13.5219 17.874 14.1599 17.2393 14.1599 16.4549V9.69381C14.1599 8.90946 13.5219 8.27393 12.7346 8.27393Z" stroke="#A6ABC8" stroke-width="1.4" stroke-linecap="round" stroke-linejoin="round"/>
<path d="M12 17.874V20.274" stroke="#A6ABC8" stroke-width="1.4" stroke-linecap="round" stroke-linejoin="round"/>
<path d="M18.48 4.91382V7.31382" stroke="#A6ABC8" stroke-width="1.4" stroke-linecap="round" stroke-linejoin="round"/>
<path fill-rule="evenodd" clip-rule="evenodd" d="M19.2145 7.31396H17.7444C16.9579 7.31396 16.3199 7.94949 16.3199 8.73389V8.77497C16.3199 9.55938 16.9579 10.194 17.7444 10.194H19.2145C20.0019 10.194 20.6399 9.55938 20.6399 8.77497V8.73389C20.6399 7.94949 20.0019 7.31396 19.2145 7.31396Z" stroke="#A6ABC8" stroke-width="1.4" stroke-linecap="round" stroke-linejoin="round"/>
<path d="M18.48 10.1938V12.5938" stroke="#A6ABC8" stroke-width="1.4" stroke-linecap="round" stroke-linejoin="round"/>
</svg>