<svg xmlns="http://www.w3.org/2000/svg" width="30" height="30" viewBox="0 0 30 30" fill="none">
  <path d="M15.7611 14.4524V15.3238M15.7611 18.8088V19.6802M13.4952 15.7594L14.2475 16.1952M17.2749 17.9373L18.027 18.3729M13.4952 18.3729L14.2475 17.9373M17.2749 16.1948L18.027 15.759M16.9918 15.8331C17.6724 16.5138 17.6724 17.6178 16.9918 18.2985C16.311 18.9783 15.2078 18.9783 14.528 18.2985C13.8473 17.6178 13.8473 16.5138 14.528 15.8331C15.2078 15.1533 16.311 15.1533 16.9918 15.8331Z" stroke="#A6ABC8" stroke-width="1.4" stroke-linecap="round" stroke-linejoin="round"/>
  <path d="M5.30151 18.9234C5.30151 16.9989 6.81988 14.6025 11.1958 14.6025" stroke="#A6ABC8" stroke-width="1.4" stroke-linecap="round" stroke-linejoin="round"/>
  <path fill-rule="evenodd" clip-rule="evenodd" d="M14.9599 8.08516C14.9599 10.1642 13.2738 11.8502 11.1947 11.8502C9.11575 11.8502 7.42969 10.1642 7.42969 8.08516C7.42969 6.00614 9.11575 4.32007 11.1947 4.32007C13.2738 4.32007 14.9599 6.00614 14.9599 8.08516Z" stroke="#A6ABC8" stroke-width="1.4" stroke-linecap="round" stroke-linejoin="round"/>
</svg>