<svg xmlns="http://www.w3.org/2000/svg" width="30" height="30" viewBox="0 0 30 30" fill="none">
<path d="M8.35422 5.54503V9.68008V17.5869C8.35422 18.9683 7.23522 20.0873 5.85376 20.0873H17.5061C19.5068 20.0873 20.6165 18.7395 20.6165 16.5622L20.6249 5.54503C20.6249 4.74828 19.8627 4.23081 19.2013 4.56988L18.5747 4.90053C18.201 5.09575 17.7695 5.10416 17.3791 4.93416L15.6081 4.14582C14.888 3.8329 14.0912 3.8329 13.371 4.14582L11.6001 4.93416C11.2096 5.10416 10.7772 5.09575 10.4045 4.90053L9.7777 4.56988C9.11641 4.23081 8.35422 4.75668 8.35422 5.54503Z" stroke="#A6ABC8" stroke-width="1.4" stroke-linecap="round" stroke-linejoin="round"/>
<path d="M5.85383 20.0873C5.1589 20.0873 4.53214 19.808 4.08286 19.3588C3.62518 18.901 3.34497 18.2734 3.34497 17.5868V10.6291C3.34497 9.83231 4.10808 9.31577 4.7694 9.65484L5.39614 9.98549C5.76884 10.1807 6.20131 10.1891 6.59081 10.0191L7.78639 9.48577C7.87887 9.44281 8.11704 9.55303 8.3543 9.68006" stroke="#A6ABC8" stroke-width="1.4" stroke-linecap="round" stroke-linejoin="round"/>
<path d="M12.4519 14.5364L16.8933 10.095" stroke="#A6ABC8" stroke-width="1.4" stroke-linecap="round" stroke-linejoin="round"/>
<path d="M16.7838 14.4673V14.5109M16.9606 14.4766C16.9606 14.5748 16.8809 14.6545 16.7827 14.6545C16.6846 14.6545 16.605 14.5748 16.605 14.4766C16.605 14.3785 16.6846 14.2988 16.7827 14.2988C16.8809 14.2988 16.9606 14.3785 16.9606 14.4766Z" stroke="#A6ABC8" stroke-width="1.4" stroke-linecap="round" stroke-linejoin="round"/>
<path d="M12.4639 10.1472V10.1908M12.6406 10.1565C12.6406 10.2547 12.5609 10.3344 12.4627 10.3344C12.3646 10.3344 12.285 10.2547 12.285 10.1565C12.285 10.0584 12.3646 9.97876 12.4627 9.97876C12.5609 9.97876 12.6406 10.0584 12.6406 10.1565Z" stroke="#A6ABC8" stroke-width="1.4" stroke-linecap="round" stroke-linejoin="round"/>
</svg>