<svg xmlns="http://www.w3.org/2000/svg" width="24" height="24" viewBox="0 0 24 24" fill="none">
<path d="M16.2826 4.89478L16.2772 4.91429M11.9663 5.44438L11.9749 5.45944M19.7009 7.57609L19.7364 7.55592M20.2701 11.8934L20.2441 11.8863" stroke="#3B74C8" stroke-width="1.44" stroke-linecap="round" stroke-linejoin="round"/>
<path d="M11.8911 8.63057C12.4828 7.658 13.5529 7.0083 14.7747 7.0083C16.6373 7.0083 18.1465 8.51827 18.1465 10.3802C18.1465 11.5466 17.5546 12.5748 16.6547 13.1803" stroke="#3B74C8" stroke-width="1.44" stroke-linecap="round" stroke-linejoin="round"/>
<path fill-rule="evenodd" clip-rule="evenodd" d="M6.32937 12.387C4.48256 12.4037 2.98975 13.6438 2.98975 15.7568C2.98975 17.1236 3.80386 18.3005 4.97277 18.8287C5.46457 19.0283 5.95478 19.1051 6.327 19.1051H14.2987C14.671 19.1051 15.1627 19.0322 15.6608 18.8327C16.8298 18.3044 17.6407 17.1236 17.6407 15.7568C17.6407 13.6438 16.1487 12.4037 14.3018 12.387C14.3018 11.0582 13.2589 8.40039 10.3153 8.40039C7.37157 8.40039 6.32937 11.0582 6.32937 12.387Z" stroke="#3B74C8" stroke-width="1.44" stroke-linecap="round" stroke-linejoin="round"/>
</svg>