<svg xmlns="http://www.w3.org/2000/svg" width="25" height="52" viewBox="0 0 25 52" fill="none">
  <path d="M18.0173 5.89038L17.086 6.82164M6.73009 17.178L5.79883 18.1093M18.0173 18.1093L17.086 17.178M6.73009 6.8221L5.79883 5.89084" stroke="black" stroke-width="1.4" stroke-linecap="round" stroke-linejoin="round"/>
  <path fill-rule="evenodd" clip-rule="evenodd" d="M11.9076 7.97241C14.1325 7.97241 15.9353 9.77608 15.9353 12.0001C15.9353 14.225 14.1325 16.0286 11.9076 16.0286C9.68262 16.0286 7.87988 14.225 7.87988 12.0001C7.87988 9.77608 9.68262 7.97241 11.9076 7.97241Z" stroke="black" stroke-width="1.4" stroke-linecap="round" stroke-linejoin="round"/>
  <path d="M11.9072 4.65747V4.67698M11.9072 19.3229V19.3462M19.2647 12.0001H19.2301M4.58418 12.0001H4.5498" stroke="black" stroke-width="1.4" stroke-linecap="round" stroke-linejoin="round"/>
  <path d="M14.335 28L12.335 30L10.335 28" stroke="black" stroke-width="1.4" stroke-linecap="round" stroke-linejoin="round"/>
  <path d="M12.335 30V25" stroke="black" stroke-width="1.4" stroke-linecap="round" stroke-linejoin="round"/>
  <path d="M6.33496 26L4.33496 28L2.33496 26" stroke="black" stroke-width="1.4" stroke-linecap="round" stroke-linejoin="round"/>
  <path d="M4.33496 28V23" stroke="black" stroke-width="1.4" stroke-linecap="round" stroke-linejoin="round"/>
  <path d="M22.335 26L20.335 28L18.335 26" stroke="black" stroke-width="1.4" stroke-linecap="round" stroke-linejoin="round"/>
  <path d="M20.335 28V23" stroke="black" stroke-width="1.4" stroke-linecap="round" stroke-linejoin="round"/>
  <path d="M4.19569 35.8356C4.27606 35.3534 4.69325 35 5.18209 35H19.4878C19.9767 35 20.3939 35.3534 20.4742 35.8356L22.1409 45.8356C22.2425 46.4451 21.7724 47 21.1545 47H3.51542C2.89748 47 2.42744 46.4451 2.52903 45.8356L4.19569 35.8356Z" stroke="black" stroke-width="1.4" stroke-linecap="round" stroke-linejoin="round"/>
  <path d="M12.335 35V47" stroke="black" stroke-width="1.4" stroke-linecap="round" stroke-linejoin="round"/>
  <path d="M21.335 41L3.33496 41" stroke="black" stroke-width="1.4" stroke-linecap="round" stroke-linejoin="round"/>
  <path d="M18.335 51L6.33496 51" stroke="black" stroke-width="1.4" stroke-linecap="round" stroke-linejoin="round"/>
  <rect x="9.33496" y="47" width="6" height="4" stroke="black" stroke-width="1.4" stroke-linecap="round" stroke-linejoin="round"/>
</svg>