<svg width="12" height="11" viewBox="0 0 12 11" fill="none" xmlns="http://www.w3.org/2000/svg">
<path d="M0.434 2.356C0.434 1.6 0.648667 1.01667 1.078 0.606C1.51667 0.195333 2.08133 -0.0100005 2.772 -0.0100005C3.46267 -0.0100005 4.02267 0.195333 4.452 0.606C4.88133 1.01667 5.096 1.6 5.096 2.356C5.096 3.112 4.88133 3.69533 4.452 4.106C4.02267 4.51667 3.46267 4.722 2.772 4.722C2.08133 4.722 1.51667 4.51667 1.078 4.106C0.648667 3.69533 0.434 3.112 0.434 2.356ZM9.94 0.143999L4.55 10H2.24L7.63 0.143999H9.94ZM2.758 1.39C2.31 1.39 2.086 1.712 2.086 2.356C2.086 2.99067 2.31 3.308 2.758 3.308C2.97267 3.308 3.14067 3.22867 3.262 3.07C3.38333 2.91133 3.444 2.67333 3.444 2.356C3.444 1.712 3.21533 1.39 2.758 1.39ZM7.098 7.788C7.098 7.032 7.31267 6.44867 7.742 6.038C8.17133 5.62733 8.73133 5.422 9.422 5.422C10.1127 5.422 10.6727 5.62733 11.102 6.038C11.5313 6.44867 11.746 7.032 11.746 7.788C11.746 8.544 11.5313 9.12733 11.102 9.538C10.6727 9.94867 10.1127 10.154 9.422 10.154C8.73133 10.154 8.17133 9.94867 7.742 9.538C7.31267 9.12733 7.098 8.544 7.098 7.788ZM9.408 6.822C9.19333 6.822 9.02533 6.90133 8.904 7.06C8.792 7.21867 8.736 7.46133 8.736 7.788C8.736 8.42267 8.96 8.74 9.408 8.74C9.62267 8.74 9.79067 8.66067 9.912 8.502C10.0333 8.34333 10.094 8.10533 10.094 7.788C10.094 7.47067 10.0333 7.23267 9.912 7.074C9.79067 6.906 9.62267 6.822 9.408 6.822Z" fill="#202328"/>
</svg>
