<svg xmlns="http://www.w3.org/2000/svg" width="25" height="24" viewBox="0 0 25 24" fill="none">
<path d="M4.62207 6V11.9997C4.62207 11.9997 4.62207 14.9994 12.2007 14.9994C19.7794 14.9994 19.7794 11.9997 19.7794 11.9997V6" stroke="#202328" stroke-width="1.4" stroke-linecap="round" stroke-linejoin="round"/>
<path d="M4.62207 12V17.9996C4.62207 17.9996 4.62207 21.0004 12.2007 21.0004C19.7794 21.0004 19.7794 17.9996 19.7794 17.9996V12" stroke="#202328" stroke-width="1.4" stroke-linecap="round" stroke-linejoin="round"/>
<path d="M12.2007 9.03766C16.3863 9.03766 19.7794 7.68608 19.7794 6.01883C19.7794 4.35158 16.3863 3 12.2007 3C8.01515 3 4.62207 4.35158 4.62207 6.01883C4.62207 7.68608 8.01515 9.03766 12.2007 9.03766Z" stroke="#202328" stroke-width="1.4" stroke-linecap="round" stroke-linejoin="round"/>
<path d="M8.17408 17.6355V17.6157M8.17409 17.5117C8.1173 17.5117 8.07129 17.5577 8.07129 17.6143C8.07129 17.6711 8.1173 17.7171 8.17409 17.7171C8.23087 17.7171 8.27688 17.6711 8.27688 17.6143C8.27688 17.5577 8.23087 17.5117 8.17409 17.5117Z" stroke="#202328" stroke-width="1.4" stroke-linecap="round" stroke-linejoin="round"/>
<path d="M8.17408 11.4783V11.4585M8.17409 11.3545C8.1173 11.3545 8.07129 11.4005 8.07129 11.4571C8.07129 11.5139 8.1173 11.5599 8.17409 11.5599C8.23087 11.5599 8.27688 11.5139 8.27688 11.4571C8.27688 11.4005 8.23087 11.3545 8.17409 11.3545Z" stroke="#202328" stroke-width="1.4" stroke-linecap="round" stroke-linejoin="round"/>
</svg>