<svg xmlns="http://www.w3.org/2000/svg" width="25" height="24" viewBox="0 0 25 24" fill="none">
<path d="M15.9535 3.57408L15.94 3.60396M8.9041 3.35999L8.91403 3.38628M20.7466 8.73318L20.8083 8.70985M8.35434 20.3902L8.36784 20.3602M3.53516 15.2409L3.56144 15.231M3.77245 8.20149L3.72627 8.18063M20.5634 15.7893L20.5236 15.7712M15.3938 20.5782L15.4172 20.64" stroke="#202328" stroke-width="1.44" stroke-linecap="round" stroke-linejoin="round"/>
<path fill-rule="evenodd" clip-rule="evenodd" d="M12.1722 5.76001C15.6188 5.76001 18.4117 8.55406 18.4117 11.9994C18.4117 15.4459 15.6188 18.24 12.1722 18.24C8.72568 18.24 5.93164 15.4459 5.93164 11.9994C5.93164 8.55406 8.72568 5.76001 12.1722 5.76001Z" stroke="#202328" stroke-width="1.44" stroke-linecap="round" stroke-linejoin="round"/>
<path d="M11.8001 13.7576L13.0152 11.8793H10.5996L11.8134 10" stroke="#202328" stroke-width="1.4" stroke-linecap="round" stroke-linejoin="round"/>
</svg>