<svg xmlns="http://www.w3.org/2000/svg" width="16" height="16" viewBox="0 0 16 16" fill="none">
<path d="M13.5354 6.01299V9.98648C13.5354 10.6248 13.1948 11.2145 12.6418 11.5339L9.20136 13.5204C8.64833 13.8399 7.96712 13.8399 7.41416 13.5204L3.97304 11.5339C3.4207 11.2145 3.08008 10.6248 3.08008 9.98648V6.01299C3.08008 5.37471 3.4207 4.78501 3.97304 4.46618L7.41416 2.47911C7.96712 2.16028 8.64833 2.16028 9.20136 2.47911L12.6418 4.46618C13.1948 4.78501 13.5354 5.37471 13.5354 6.01299Z" stroke="#91A1A9" stroke-linecap="round" stroke-linejoin="round"/>
<path d="M8.30714 9.77076C9.28538 9.77076 10.0781 8.97806 10.0781 7.99976C10.0781 7.02145 9.28538 6.22876 8.30714 6.22876C7.32884 6.22876 6.53613 7.02145 6.53613 7.99976C6.53613 8.97806 7.32884 9.77076 8.30714 9.77076Z" stroke="#91A1A9" stroke-linecap="round" stroke-linejoin="round"/>
</svg>