<svg xmlns="http://www.w3.org/2000/svg" width="24" height="24" viewBox="0 0 24 24" fill="none">
<path d="M12 24C18.6274 24 24 18.6274 24 12C24 5.37258 18.6274 0 12 0C5.37258 0 0 5.37258 0 12C0 18.6274 5.37258 24 12 24Z" fill="#F2BB30" fill-opacity="0.2"/>
<path d="M12.0029 12.7816L12.0029 16.1141" stroke="#F2BB30" stroke-width="2" stroke-linecap="round" stroke-linejoin="round"/>
<path d="M11.9964 8.82829L11.9964 8.76855M12.2383 8.81529C12.2383 8.68084 12.1298 8.57156 11.9954 8.57156C11.8609 8.57156 11.7516 8.68084 11.7516 8.81529C11.7516 8.94975 11.8609 9.05902 11.9954 9.05902C12.1298 9.05902 12.2383 8.94975 12.2383 8.81529Z" stroke="#F2BB30" stroke-width="2" stroke-linecap="round" stroke-linejoin="round"/>
</svg>