<svg xmlns="http://www.w3.org/2000/svg" width="25" height="24" viewBox="0 0 25 24" fill="none">
<path d="M12.335 24C18.9624 24 24.335 18.6274 24.335 12C24.335 5.37258 18.9624 0 12.335 0C5.70754 0 0.334961 5.37258 0.334961 12C0.334961 18.6274 5.70754 24 12.335 24Z" fill="#4FAFF5" fill-opacity="0.2"/>
<path d="M12.3232 11.9039V8.57129" stroke="#4FAFF5" stroke-width="2" stroke-linecap="round" stroke-linejoin="round"/>
<path d="M12.3293 15.8572V15.9169M12.0874 15.8702C12.0874 16.0046 12.1959 16.1139 12.3303 16.1139C12.4648 16.1139 12.574 16.0046 12.574 15.8702C12.574 15.7357 12.4648 15.6265 12.3303 15.6265C12.1959 15.6265 12.0874 15.7357 12.0874 15.8702Z" stroke="#4FAFF5" stroke-width="2" stroke-linecap="round" stroke-linejoin="round"/>
</svg>