<svg xmlns="http://www.w3.org/2000/svg" width="24" height="24" viewBox="0 0 24 24" fill="none">
<path fill-rule="evenodd" clip-rule="evenodd" d="M9.44112 18.0749L10.8058 19.4395C11.3606 19.9943 12.2582 19.9943 12.8122 19.4395L14.1777 18.0749C14.5663 17.6863 15.0931 17.4687 15.6423 17.4687H16.6679C18.7565 17.4687 20.449 15.7752 20.449 13.6866V7.04741C20.449 4.95887 18.7565 3.26636 16.6679 3.26636H6.95093C4.86238 3.26636 3.16895 4.95887 3.16895 7.04741V13.6866C3.16895 15.7752 4.86238 17.4687 6.95093 17.4687H7.97652C8.52574 17.4687 9.05255 17.6863 9.44112 18.0749Z" stroke="#282B2E" stroke-width="1.4" stroke-linecap="round" stroke-linejoin="round"/>
<path d="M15.6555 10.3744V10.4415M15.9271 10.3888C15.9271 10.5397 15.8047 10.662 15.6539 10.662C15.5031 10.662 15.3809 10.5397 15.3809 10.3888C15.3809 10.238 15.5031 10.1157 15.6539 10.1157C15.8047 10.1157 15.9271 10.238 15.9271 10.3888Z" stroke="#282B2E" stroke-width="1.4" stroke-linecap="round" stroke-linejoin="round"/>
<path d="M11.8099 10.3744V10.4415M12.0814 10.3888C12.0814 10.5397 11.9591 10.662 11.8082 10.662C11.6574 10.662 11.5352 10.5397 11.5352 10.3888C11.5352 10.238 11.6574 10.1157 11.8082 10.1157C11.9591 10.1157 12.0814 10.238 12.0814 10.3888Z" stroke="#282B2E" stroke-width="1.4" stroke-linecap="round" stroke-linejoin="round"/>
<path d="M7.96417 10.3744V10.4415M8.23571 10.3888C8.23571 10.5397 8.11333 10.662 7.9625 10.662C7.81166 10.662 7.68945 10.5397 7.68945 10.3888C7.68945 10.238 7.81166 10.1157 7.9625 10.1157C8.11333 10.1157 8.23571 10.238 8.23571 10.3888Z" stroke="#282B2E" stroke-width="1.4" stroke-linecap="round" stroke-linejoin="round"/>
</svg>