<svg xmlns="http://www.w3.org/2000/svg" width="24" height="24" viewBox="0 0 24 24" fill="none">
<path d="M18.5664 9.56661L18.5673 10.885C18.5673 11.6643 18.7395 12.4349 19.0713 13.1403L19.5374 14.1308C20.2496 15.6448 19.1453 17.3854 17.4718 17.3854H6.52774C4.85423 17.3854 3.7499 15.6448 4.46212 14.1308L4.92817 13.1403C5.26093 12.4349 5.43217 11.6643 5.43217 10.885L5.43315 9.56661C5.43315 5.93936 8.37348 3 11.9998 3" stroke="#282B2E" stroke-width="1.4" stroke-linecap="round" stroke-linejoin="round"/>
<path fill-rule="evenodd" clip-rule="evenodd" d="M16.5001 2C17.8807 2 19 3.11924 19 4.5C19 5.88076 17.8807 7 16.5001 7C15.1193 7 14 5.88076 14 4.5C14 3.11924 15.1193 2 16.5001 2Z" fill="#FB7777"/>
<path d="M9 18C9 19.6563 10.343 21 11.9995 21C13.657 21 15 19.6563 15 18" stroke="#282B2E" stroke-width="1.4" stroke-linecap="round" stroke-linejoin="round"/>
</svg>