<svg xmlns="http://www.w3.org/2000/svg" width="24" height="24" viewBox="0 0 24 24" fill="none">
<path d="M9.02477 11.6531C9.02477 13.1641 10.2497 14.389 11.7607 14.389C13.2717 14.389 14.4966 13.1641 14.4966 11.6531C14.4966 10.1421 13.2717 8.91724 11.7607 8.91724C10.2497 8.91724 9.02477 10.1421 9.02477 11.6531Z" stroke="#91A1A9" stroke-width="1.4" stroke-linecap="round" stroke-linejoin="round"/>
<path d="M20.4941 10.1532C21.03 11.0814 21.03 12.225 20.4941 13.1532L17.4262 18.467C16.8903 19.3952 15.8999 19.967 14.8281 19.967H8.69221C7.62041 19.967 6.63003 19.3952 6.09413 18.467L3.02618 13.1532C2.49028 12.225 2.49028 11.0814 3.02618 10.1532L6.09413 4.83935C6.63003 3.91115 7.62041 3.33936 8.6922 3.33936H14.8281C15.8999 3.33936 16.8903 3.91115 17.4262 4.83935L20.4941 10.1532Z" stroke="#91A1A9" stroke-width="1.4" stroke-linecap="square"/>
</svg>