<svg xmlns="http://www.w3.org/2000/svg" width="24" height="24" viewBox="0 0 24 24" fill="none">
<path d="M20.3044 12.0001C20.3044 7.22895 16.4365 3.36011 11.6644 3.36011C6.89233 3.36011 3.02441 7.22895 3.02441 12.0001C3.02441 16.7722 6.89233 20.6401 11.6644 20.6401C16.4365 20.6401 20.3044 16.7722 20.3044 12.0001Z" stroke="#91A1A9" stroke-width="1.4" stroke-linecap="round" stroke-linejoin="round"/>
<path d="M7.15674 19.3495C7.33608 17.9549 8.5765 16.4062 11.657 16.4062C14.7702 16.4062 16.0022 17.9634 16.1741 19.3748" stroke="#91A1A9" stroke-width="1.4" stroke-linecap="round" stroke-linejoin="round"/>
<path fill-rule="evenodd" clip-rule="evenodd" d="M14.2737 11.3285C14.2737 12.7697 13.1052 13.9382 11.6639 13.9382C10.2227 13.9382 9.0542 12.7697 9.0542 11.3285C9.0542 9.88725 10.2227 8.71875 11.6639 8.71875C13.1052 8.71875 14.2737 9.88725 14.2737 11.3285Z" stroke="#91A1A9" stroke-width="1.4" stroke-linecap="round" stroke-linejoin="round"/>
</svg>