<svg xmlns="http://www.w3.org/2000/svg" width="24" height="24" viewBox="0 0 24 24" fill="none">
<path d="M3.02441 17.5338L5.4894 18.1036L6.05637 15.6526" stroke="#91A1A9" stroke-width="1.4" stroke-linecap="round" stroke-linejoin="round"/>
<path d="M20.3044 6.46846L17.8394 5.89868L17.2725 8.34966" stroke="#91A1A9" stroke-width="1.4" stroke-linecap="round" stroke-linejoin="round"/>
<path d="M8.60986 15.769C8.60986 14.6583 9.48974 13.2712 12.0126 13.2712C14.542 13.2712 15.422 14.6453 15.422 15.7558" stroke="#91A1A9" stroke-width="1.4" stroke-linecap="round" stroke-linejoin="round"/>
<path d="M5.51658 17.8924C2.31089 14.5755 2.33237 9.2878 5.59784 5.99711C7.6425 3.93657 10.4802 3.14169 13.1376 3.61713" stroke="#91A1A9" stroke-width="1.4" stroke-linecap="round" stroke-linejoin="round"/>
<path d="M17.8133 6.10498C21.0191 9.42182 20.9976 14.7095 17.7321 18.0002C15.6874 20.0607 12.8498 20.8556 10.1924 20.3802" stroke="#91A1A9" stroke-width="1.4" stroke-linecap="round" stroke-linejoin="round"/>
<path fill-rule="evenodd" clip-rule="evenodd" d="M14.1888 9.24333C14.1888 10.4445 13.2155 11.4179 12.0143 11.4179C10.8131 11.4179 9.83984 10.4445 9.83984 9.24333C9.83984 8.04213 10.8131 7.06885 12.0143 7.06885C13.2155 7.06885 14.1888 8.04213 14.1888 9.24333Z" stroke="#91A1A9" stroke-width="1.4" stroke-linecap="round" stroke-linejoin="round"/>
</svg>